/* XPM */
static char * flagup_data[] = {
"48 48 3 1",
" 	c None",
".	c #000000",
"+	c #FFFFFF",
"................................................",
".............................++++++++++.........",
".............................++++++++++.........",
"........................++++.+++.+.+.++.........",
"......................++++.++++.+.+.+++.........",
".....................+++.....+++.+.+.++.........",
"....................++.......++.+.+.+++.........",
"...................++........++++++++++.........",
"..................++.........++++++++++.........",
".................++..........+++..+.............",
"................++...........+++..+.............",
"...............++............+++.++.............",
"..............+++++++........++++++.............",
".............++++++++++......++++++.............",
"............+++......+++.....++++.+.............",
"...........+++.........++....+++..+.............",
"...........++..........++...++++..+.............",
"..........++............++.+++++..+.............",
"..........++............++++++++..+.............",
".........++....++++++....+++.+++..+.............",
".........++......++......++..+++..+.............",
".........++..............++..+++..+.............",
".........++..............++..+++..+.............",
".........++..............++..++...+.............",
"+++++++..++.+.+..+..+.+..++.......+..+++++++++++",
".........++.+++.+.+.+.+..++.......+.............",
".........++.+.+.+++.+.+..++.......+.............",
".........++.+.+.+.+.+.+..++......++.............",
".........++.+.+.+.+.+.++.++.....++..............",
".........++..............++....++...............",
"..+.+.+..++..............++...++..+.+.+.+.+.+.+.",
".+.+.+.+.++..............++..++..+.+.+.+.+.+.+..",
"..+.+.+..++..............++.++..+.+.+.+.+.+.+.+.",
".+.+.+.+.++..............+++++.+.+.+.+.+.+.+.+..",
"..+.+.+..+++++++++++++++++++.++.+.+.+.+.+.+.+.+.",
".+.+.+.+..+++++++++++++++++..+.+.+.+.+.+.+.+.+..",
"..+.+.+.+..........+...+.....++.+.+.+.+.+.+.+.+.",
".+.+.+.+.+.+.+.+.+.+...+.....+.+.+.+.+.+.+.+.+..",
"..+.+.+.+.+.+.+.+.++...+.....++.+.+.+.+.+.+.+.+.",
".+.+.+.+.+.+.+.+.+.+...+.....+.+.+.+.+.+.+.+.+..",
"..+.+.+.+.+.+.+.+.++...+.....++.+.+.+.+.+.+.+.+.",
".+.+.+.+.+.+.+.+.+.+...+.....+.+.+.+.+.+.+.+.+..",
"..+.+.+.+.+.+.+.+.++...+....+.+.+.+.+.+.+.+.+.+.",
".+.+.+.+.+.+.+.+.+.+...+...+.+.+.+.+.+.+.+.+.+..",
"..+.+.+.+.+.+.+.+.+.+..+..+.+.+.+.+.+.+.+.+.+.+.",
".+.+.+.+.+.+.+.+.+.+.+.+.+.+.+.+.+.+.+.+.+.+.+..",
"..+.+.+.+.+.+.+.+.+.+.+.+.+.+.+.+.+.+.+.+.+.+...",
"................................................"};
